<svg xmlns="http://www.w3.org/2000/svg" width="32" height="32" viewBox="0 0 32 32" role="img" aria-label="Coffee cup">
  <rect width="32" height="32" rx="7" fill="#3E2C22"/>
  <g fill="none" stroke="#B98A64" stroke-width="2.6" stroke-linecap="round">
    <path d="M12.5 10.6c-1.4 0-1.4-1.8 0-1.8s1.4-1.8 0-1.8"/>
    <path d="M19.5 10.6c-1.4 0-1.4-1.8 0-1.8s1.4-1.8 0-1.8"/>
  </g>
  <path d="M7 13h14v5.5a6 6 0 0 1-6 6h-2a6 6 0 0 1-6-6V13Z" fill="#F7F1E8"/>
  <path d="M21 15.5h1.2a3.4 3.4 0 0 1 0 6.8H21" fill="none" stroke="#F7F1E8" stroke-width="2.2" stroke-linecap="round"/>
  <path d="M6.5 27.2h13" fill="none" stroke="#B98A64" stroke-width="2.6" stroke-linecap="round"/>
</svg>
